<svg height="419.932" viewBox="0 0 787 419.932" width="787" xmlns="http://www.w3.org/2000/svg"><g transform="translate(-145 -7.787)"><g opacity=".501"><rect fill="#f9f9f9" height="217.997" rx="5" width="786" x="145.5" y="8.287"/><path d="m5-.5h6v1h-6zm12 0h6v1h-6zm12 0h6v1h-6zm12 0h6v1h-6zm12 0h6v1h-6zm12 0h6v1h-6zm12 0h6v1h-6zm12 0h6v1h-6zm12 0h6v1h-6zm12 0h6v1h-6zm12 0h6v1h-6zm12 0h6v1h-6zm12 0h6v1h-6zm12 0h6v1h-6zm12 0h6v1h-6zm12 0h6v1h-6zm12 0h6v1h-6zm12 0h6v1h-6zm12 0h6v1h-6zm12 0h6v1h-6zm12 0h6v1h-6zm12 0h6v1h-6zm12 0h6v1h-6zm12 0h6v1h-6zm12 0h6v1h-6zm12 0h6v1h-6zm12 0h6v1h-6zm12 0h6v1h-6zm12 0h6v1h-6zm12 0h6v1h-6zm12 0h6v1h-6zm12 0h6v1h-6zm12 0h6v1h-6zm12 0h6v1h-6zm12 0h6v1h-6zm12 0h6v1h-6zm12 0h6v1h-6zm12 0h6v1h-6zm12 0h6v1h-6zm12 0h6v1h-6zm12 0h6v1h-6zm12 0h6v1h-6zm12 0h6v1h-6zm12 0h6v1h-6zm12 0h6v1h-6zm12 0h6v1h-6zm12 0h6v1h-6zm12 0h6v1h-6zm12 0h6v1h-6zm12 0h6v1h-6zm12 0h6v1h-6zm12 0h6v1h-6zm12 0h6v1h-6zm12 0h6v1h-6zm12 0h6v1h-6zm12 0h6v1h-6zm12 0h6v1h-6zm12 0h6v1h-6zm12 0h6v1h-6zm12 0h6v1h-6zm12 0h6v1h-6zm12 0h6v1h-6zm12 0h6v1h-6zm12 0h6v1h-6zm12 0h6v1h-6zm-769.534.217.278.96a4.524 4.524 0 0 0 -3.227 3.923l-1-.087a5.5 5.5 0 0 1 3.945-4.8zm781.479 1.451a5.471 5.471 0 0 1 1.555 3.832v2.145h-1v-2.145a4.476 4.476 0 0 0 -1.272-3.135zm-785.445 9.39h1v6h-1zm786 2.587h1v6h-1zm-786 9.413h1v6h-1zm786 2.587h1v6h-1zm-786 9.413h1v6h-1zm786 2.587h1v6h-1zm-786 9.413h1v6h-1zm786 2.587h1v6h-1zm-786 9.413h1v6h-1zm786 2.587h1v6h-1zm-786 9.413h1v6h-1zm786 2.587h1v6h-1zm-786 9.413h1v6h-1zm786 2.587h1v6h-1zm-786 9.413h1v6h-1zm786 2.587h1v6h-1zm-786 9.413h1v6h-1zm786 2.587h1v6h-1zm-786 9.413h1v6h-1zm786 2.587h1v6h-1zm-786 9.413h1v6h-1zm786 2.587h1v6h-1zm-786 9.413h1v6h-1zm786 2.587h1v6h-1zm-786 9.413h1v6h-1zm786 2.587h1v6h-1zm-786 9.413h1v6h-1zm786 2.587h1v6h-1zm-786 9.413h1v6h-1zm786 2.587h1v6h-1zm-786 9.413h1v6h-1zm786 2.587h1v6h-1zm-786 9.413h1v6h-1zm786 2.587h1v6h-1zm-784.784 9.234a4.526 4.526 0 0 0 4.019 3.11l-.058 1a5.5 5.5 0 0 1 -4.913-3.8zm783.322 1.937.675.738a5.485 5.485 0 0 1 -3.713 1.446h-2.294v-1h2.294a4.487 4.487 0 0 0 3.038-1.184zm-773.332 1.184h6v1h-6zm12 0h6v1h-6zm12 0h6v1h-6zm12 0h6v1h-6zm12 0h6v1h-6zm12 0h6v1h-6zm12 0h6v1h-6zm12 0h6v1h-6zm12 0h6v1h-6zm12 0h6v1h-6zm12 0h6v1h-6zm12 0h6v1h-6zm12 0h6v1h-6zm12 0h6v1h-6zm12 0h6v1h-6zm12 0h6v1h-6zm12 0h6v1h-6zm12 0h6v1h-6zm12 0h6v1h-6zm12 0h6v1h-6zm12 0h6v1h-6zm12 0h6v1h-6zm12 0h6v1h-6zm12 0h6v1h-6zm12 0h6v1h-6zm12 0h6v1h-6zm12 0h6v1h-6zm12 0h6v1h-6zm12 0h6v1h-6zm12 0h6v1h-6zm12 0h6v1h-6zm12 0h6v1h-6zm12 0h6v1h-6zm12 0h6v1h-6zm12 0h6v1h-6zm12 0h6v1h-6zm12 0h6v1h-6zm12 0h6v1h-6zm12 0h6v1h-6zm12 0h6v1h-6zm12 0h6v1h-6zm12 0h6v1h-6zm12 0h6v1h-6zm12 0h6v1h-6zm12 0h6v1h-6zm12 0h6v1h-6zm12 0h6v1h-6zm12 0h6v1h-6zm12 0h6v1h-6zm12 0h6v1h-6zm12 0h6v1h-6zm12 0h6v1h-6zm12 0h6v1h-6zm12 0h6v1h-6zm12 0h6v1h-6zm12 0h6v1h-6zm12 0h6v1h-6zm12 0h6v1h-6zm12 0h6v1h-6zm12 0h6v1h-6zm12 0h6v1h-6zm12 0h6v1h-6zm12 0h6v1h-6zm12 0h6v1h-6z" fill="#adb3bc" transform="translate(145.5 8.287)"/></g><g transform="translate(442.689 57.458)"><rect fill="#fff" height="144.888" rx="10" width="191.002"/><path d="m10 1a9.01 9.01 0 0 0 -9 9v124.888a9.01 9.01 0 0 0 9 9h171a9.01 9.01 0 0 0 9-9v-124.888a9.01 9.01 0 0 0 -9-9zm0-1h171a10 10 0 0 1 10 10v124.888a10 10 0 0 1 -10 10h-171a10 10 0 0 1 -10-10v-124.888a10 10 0 0 1 10-10z" fill="#adb3bc"/></g><g transform="translate(470.69 140.59)"><rect fill="#fff" height="37.697" rx="10" width="135.508"/><path d="m10 1a9.01 9.01 0 0 0 -9 9v17.7a9.01 9.01 0 0 0 9 9h115.508a9.01 9.01 0 0 0 9-9v-17.7a9.01 9.01 0 0 0 -9-9zm0-1h115.508a10 10 0 0 1 10 10v17.7a10 10 0 0 1 -10 10h-115.508a10 10 0 0 1 -10-10v-17.7a10 10 0 0 1 10-10z" fill="#adb3bc"/></g><path d="m-42.2-3.384h4.9v-.962h-3.8v-2.272h3.726v-.962h-3.726v-2.13h3.8v-.962h-4.9zm9.8 0h.983v-3.7a1.517 1.517 0 0 0 -1.694-1.7 2.517 2.517 0 0 0 -1.869.874v-.743h-.983v5.278h.983v-3.77a1.885 1.885 0 0 1 1.453-.765c.677 0 1.125.284 1.125 1.158zm3.945 0h1.06l2.174-5.278h-1.06l-1.65 4.141-1.65-4.141h-1.049zm6.37.131a2.616 2.616 0 0 0 2.666-2.775 2.613 2.613 0 0 0 -2.666-2.765 2.62 2.62 0 0 0 -2.665 2.765 2.623 2.623 0 0 0 2.667 2.775zm0-.874a1.719 1.719 0 0 1 -1.639-1.9 1.715 1.715 0 0 1 1.639-1.89 1.709 1.709 0 0 1 1.639 1.89 1.713 1.713 0 0 1 -1.637 1.9zm3.8 1.923-.153.885a2.842 2.842 0 0 0 .612.076 1.668 1.668 0 0 0 1.683-1.136l2.6-6.283h-1.057l-1.65 4.141-1.65-4.14h-1.049l2.174 5.332-.306.7a.729.729 0 0 1 -.765.514 1.2 1.2 0 0 1 -.435-.085zm8.385-1.18h1.093v-2.808h1.978a2.18 2.18 0 0 0 2.329-2.24 2.174 2.174 0 0 0 -2.327-2.24h-3.073zm4.272-5.048a1.251 1.251 0 0 1 -1.343 1.278h-1.836v-2.556h1.836a1.251 1.251 0 0 1 1.344 1.278zm2.228 5.048h.983v-3.671a1.864 1.864 0 0 1 1.39-.765 1.548 1.548 0 0 1 .339.033v-.994a2.242 2.242 0 0 0 -1.726.929v-.809h-.986zm6.032.131a2.616 2.616 0 0 0 2.668-2.775 2.613 2.613 0 0 0 -2.666-2.765 2.62 2.62 0 0 0 -2.667 2.765 2.623 2.623 0 0 0 2.667 2.775zm0-.874a1.719 1.719 0 0 1 -1.639-1.9 1.715 1.715 0 0 1 1.639-1.89 1.709 1.709 0 0 1 1.639 1.89 1.713 1.713 0 0 1 -1.637 1.9zm6.982.743h1.116l-1.988-2.71 1.868-2.567h-1.11l-1.359 1.901-1.366-1.9h-1.115l1.858 2.566-1.978 2.71h1.115l1.486-2.054zm1.886 1.184-.153.885a2.842 2.842 0 0 0 .612.076 1.668 1.668 0 0 0 1.683-1.136l2.6-6.283h-1.06l-1.654 4.138-1.65-4.141h-1.049l2.171 5.332-.306.7a.729.729 0 0 1 -.765.514 1.2 1.2 0 0 1 -.429-.085z" fill="#35393b" transform="translate(570.307 166.194)"/><path d="m18.038 87.836.036 1.653 1.738 1.082-.036-1.653zm4.243 6.864-.036-1.617-1.519-.948a.267.267 0 0 1 -.061-.049l.035 1.634zm-5.434 2.18-3.975-2.455-.1-4.133 1.945-.839-.033-1.653-3.112 1.337a.6.6 0 0 0 -.377.583l.122 4.959a.781.781 0 0 0 .413.656l4.777 2.954a.94.94 0 0 0 .717.109c.024-.012.049-.012.073-.024l2.929-1.264-1.592-.985z" fill="#b31aab" transform="translate(479.984 71.247)"/><path d="m60.19 55.852a.952.952 0 0 0 -.474-.766l-5.8-3.586-.182.073.036 1.738 4.583 2.844.109 4.643 1.75 1.082.1-.036-.122-5.993zm-6.94 8.168-5.373-3.343-.134-5.592 2.457-1.057-.05-1.928-3.817 1.641a.7.7 0 0 0 -.438.681l.158 6.564a.908.908 0 0 0 .474.766l6.309 3.914a1.033 1.033 0 0 0 .839.122.173.173 0 0 1 .073-.024l3.732-1.6-1.848-1.143z" fill="#d163ce" transform="translate(449.501 103.135)"/><path d="m104.324 11.987-8.1-5.008a1.183 1.183 0 0 0 -.96-.134c-.024.012-.061.024-.085.036l-7.889 3.4a.8.8 0 0 0 -.5.778l.194 8.412a1.092 1.092 0 0 0 .547.875l8.083 5.008a1.177 1.177 0 0 0 .96.134c.024-.012.061-.024.085-.036l7.889-3.4a.806.806 0 0 0 .5-.778l-.194-8.412a1.067 1.067 0 0 0 -.53-.875zm-8.217 11.487-7.026-4.352-.181-7.322 6.856-2.954 7.026 4.352.17 7.305-6.844 2.966z" fill="#e13eaf" transform="translate(413.572 142.405)"/><g transform="translate(470.69 82.044)"><rect fill="#fff" height="44.688" rx="10" width="135.508"/><path d="m10 1a9.01 9.01 0 0 0 -9 9v24.688a9.01 9.01 0 0 0 9 9h115.508a9.01 9.01 0 0 0 9-9v-24.688a9.01 9.01 0 0 0 -9-9zm0-1h115.508a10 10 0 0 1 10 10v24.688a10 10 0 0 1 -10 10h-115.508a10 10 0 0 1 -10-10v-24.688a10 10 0 0 1 10-10z" fill="#adb3bc"/></g><path d="m28.127 8.537a2.079 2.079 0 0 0 -1.027-1.188l-9.794-4.688a1.8 1.8 0 0 0 -.8-.161 3.389 3.389 0 0 0 -.8.064l-9.8 4.721a1.725 1.725 0 0 0 -.963 1.188l-2.409 10.565a2.026 2.026 0 0 0 .353 1.541l6.776 8.381a2.338 2.338 0 0 0 1.477.674h10.79a1.6 1.6 0 0 0 1.477-.674l6.776-8.381a2.193 2.193 0 0 0 .385-1.541z" fill="#fff" transform="translate(479.615 88.316)"/><path d="m28.127 8.537a2.079 2.079 0 0 0 -1.027-1.188l-9.794-4.688a1.8 1.8 0 0 0 -.8-.161 3.389 3.389 0 0 0 -.8.064l-9.8 4.721a1.725 1.725 0 0 0 -.963 1.188l-2.409 10.565a2.026 2.026 0 0 0 .353 1.541l6.776 8.381a2.338 2.338 0 0 0 1.477.674h10.79a1.6 1.6 0 0 0 1.477-.674l6.776-8.381a2.193 2.193 0 0 0 .385-1.541z" fill="#326de6" transform="translate(479.615 88.316)"/><path d="m33.722 25.871c-.032 0-.064 0-.064-.032s-.064-.032-.128-.032a1.563 1.563 0 0 0 -.385-.032.407.407 0 0 1 -.193-.032h-.032a6.49 6.49 0 0 1 -1.092-.193.388.388 0 0 1 -.225-.225l-.257-.064a8.375 8.375 0 0 0 -.128-2.826 8.7 8.7 0 0 0 -1.125-2.635l.193-.193v-.032a.448.448 0 0 1 .1-.289 5.75 5.75 0 0 1 .9-.642l.193-.1c.128-.064.225-.128.353-.193.032-.032.064-.032.1-.064s0-.032 0-.064a.628.628 0 0 0 .128-.9.613.613 0 0 0 -.45-.225.767.767 0 0 0 -.45.161l-.032.032c-.032.032-.064.064-.1.064a2.078 2.078 0 0 0 -.257.289c-.032.064-.1.1-.128.128a4.222 4.222 0 0 1 -.8.706.456.456 0 0 1 -.193.064.193.193 0 0 1 -.128-.032h-.032l-.257.161c-.257-.257-.546-.514-.8-.771a8.228 8.228 0 0 0 -4.175-1.67l-.032-.257v.032a.441.441 0 0 1 -.161-.257 6.415 6.415 0 0 1 .064-1.092v-.032c0-.064.032-.128.032-.193.032-.128.032-.257.064-.385v-.193a.635.635 0 0 0 -.546-.674.644.644 0 0 0 -.546.225.634.634 0 0 0 -.193.45v.161a1.612 1.612 0 0 0 .064.385.407.407 0 0 1 .032.193v.032a6.052 6.052 0 0 1 .064 1.092.441.441 0 0 1 -.161.257v.064l-.039.262c-.353.032-.706.1-1.092.161a7.655 7.655 0 0 0 -3.95 2.248l-.193-.128h-.032c-.032 0-.064.032-.128.032a.456.456 0 0 1 -.193-.064 5.921 5.921 0 0 1 -.8-.739c-.032-.064-.1-.1-.128-.128-.1-.1-.161-.193-.257-.289-.032-.032-.064-.032-.1-.064l-.027-.029a.767.767 0 0 0 -.45-.161.486.486 0 0 0 -.45.225.691.691 0 0 0 .128.9.031.031 0 0 1 .032.032s.064.064.1.064a3.5 3.5 0 0 0 .353.193l.193.1a4.559 4.559 0 0 1 .9.642.324.324 0 0 1 .1.289v-.032l.193.193c-.032.064-.064.1-.1.161a7.625 7.625 0 0 0 -1.124 5.266l-.257.064a.031.031 0 0 1 -.032.032.506.506 0 0 1 -.225.225 5.965 5.965 0 0 1 -1.092.193.407.407 0 0 0 -.193.032c-.128 0-.257.032-.385.032-.032 0-.064.032-.128.032-.032 0-.032 0-.064.032a.627.627 0 0 0 -.514.739.6.6 0 0 0 .642.45.29.29 0 0 0 .161-.032c.032 0 .032 0 .032-.032s.1 0 .128 0c.128-.032.257-.1.353-.128a.457.457 0 0 1 .193-.064h.032a5.725 5.725 0 0 1 1.06-.289h.032a.365.365 0 0 1 .257.1.031.031 0 0 1 .032.032l.289-.032a7.751 7.751 0 0 0 2.625 3.742 5.093 5.093 0 0 0 .867.578l-.161.225a.031.031 0 0 0 .032.032.38.38 0 0 1 .032.321 5.269 5.269 0 0 1 -.514.931v.032a.564.564 0 0 1 -.128.161c-.064.064-.128.193-.225.321-.032.032-.032.064-.064.1a.031.031 0 0 1 -.032.032.661.661 0 0 0 .257.867.6.6 0 0 0 .225.064.72.72 0 0 0 .61-.385.031.031 0 0 1 .032-.032c0-.032.032-.064.064-.1.032-.128.1-.225.128-.353l.064-.193a5.434 5.434 0 0 1 .417-1 .5.5 0 0 1 .257-.193c.032 0 .032 0 .032-.032l.128-.257a7.559 7.559 0 0 0 2.794.514 6.43 6.43 0 0 0 1.734-.225 9.593 9.593 0 0 0 1.028-.289l.128.225c.032 0 .032 0 .032.032a.5.5 0 0 1 .257.193 5.435 5.435 0 0 1 .417 1v.031l.064.193a1.15 1.15 0 0 0 .128.353c.032.032.032.064.064.1a.031.031 0 0 0 .032.032.72.72 0 0 0 .61.385.756.756 0 0 0 .257-.064.537.537 0 0 0 .289-.353.826.826 0 0 0 -.032-.482.031.031 0 0 0 -.032-.032c0-.032-.032-.064-.064-.1a1.153 1.153 0 0 0 -.225-.321.564.564 0 0 0 -.128-.161v-.06a3.794 3.794 0 0 1 -.514-.931.38.38 0 0 1 .032-.321.031.031 0 0 1 .032-.032l-.1-.257a7.937 7.937 0 0 0 3.468-4.367l.257.032a.031.031 0 0 0 .032-.032.365.365 0 0 1 .257-.1h.041a5.4 5.4 0 0 1 1.028.289h.032a.456.456 0 0 0 .193.064 1.72 1.72 0 0 0 .353.161c.032 0 .064.032.128.032.032 0 .032 0 .064.032a.29.29 0 0 0 .161.032.7.7 0 0 0 .642-.45.757.757 0 0 0 -.579-.671zm-9.28-1-.867.417-.867-.417-.225-.931.61-.771h.963l.61.771zm5.234-2.087a6.148 6.148 0 0 1 .128 2.023l-3.051-.867a.525.525 0 0 1 -.385-.642.518.518 0 0 1 .128-.225l2.404-2.179a6.533 6.533 0 0 1 .775 1.895zm-1.734-3.083-2.633 1.863a.546.546 0 0 1 -.706-.128.292.292 0 0 1 -.1-.225l-.193-3.243a6.043 6.043 0 0 1 3.629 1.734zm-5.812-1.638.642-.128-.161 3.211a.535.535 0 0 1 -.546.514.756.756 0 0 1 -.257-.064l-2.665-1.895a6.377 6.377 0 0 1 2.986-1.633zm-3.918 2.826 2.376 2.119a.516.516 0 0 1 .064.739.361.361 0 0 1 -.257.161l-3.115.9a6.76 6.76 0 0 1 .931-3.914zm-.546 5.427 3.179-.546a.526.526 0 0 1 .546.417.38.38 0 0 1 -.032.321l-1.22 2.954a6.317 6.317 0 0 1 -2.474-3.141zm7.29 3.982a6.5 6.5 0 0 1 -1.381.161 7.2 7.2 0 0 1 -2.023-.321l1.574-2.858a.5.5 0 0 1 .642-.128 1.608 1.608 0 0 1 .257.225l1.541 2.794a5.219 5.219 0 0 0 -.611.129zm3.918-2.794a6.132 6.132 0 0 1 -1.927 1.927l-1.252-3.019a.522.522 0 0 1 .289-.61.937.937 0 0 1 .289-.064l3.211.546a4.821 4.821 0 0 1 -.611 1.225z" fill="#fff" transform="translate(472.512 81.065)"/><path d="m-52.2-4.521h1.778l-4.258-5.034 3.944-4.532h-1.778l-4 4.747v-4.747h-1.436v9.566h1.434v-3.141l.9-1.018zm2.625-2.438c0 1.678 1.621 2.61 3.557 2.61 1.907 0 3.528-.947 3.528-2.61a2.807 2.807 0 0 0 -2.209-2.5 2.5 2.5 0 0 0 2.065-2.28c0-1.735-1.764-2.5-3.385-2.5-1.664 0-3.4.76-3.4 2.5a2.481 2.481 0 0 0 2.051 2.28 2.807 2.807 0 0 0 -2.206 2.5zm5.493-4.561c0 1.018-1.348 1.391-1.936 1.492-.588-.1-1.95-.473-1.95-1.492 0-.9.832-1.434 1.95-1.434 1.076 0 1.937.531 1.937 1.434zm.158 4.389c0 .932-.99 1.506-2.094 1.506-1.147 0-2.108-.574-2.108-1.506 0-1.119 1.506-1.606 2.108-1.678.574.072 2.095.559 2.095 1.678zm2.538 1.707a3.941 3.941 0 0 0 2.886 1.075c1.821 0 2.8-.932 2.8-2.123 0-1.592-1.434-1.922-2.639-2.194-.861-.2-1.606-.4-1.606-1 0-.559.545-.9 1.42-.9a2.7 2.7 0 0 1 2.051.846l.574-.9a3.707 3.707 0 0 0 -2.639-.99c-1.692 0-2.639.947-2.639 2.051 0 1.492 1.377 1.807 2.553 2.08.889.2 1.678.43 1.678 1.119 0 .588-.516.99-1.492.99a3.356 3.356 0 0 1 -2.323-.99zm10.455-.445a4.895 4.895 0 0 0 3.772 1.52c2.582 0 3.614-1.391 3.614-2.883 0-2.037-1.821-2.524-3.385-2.94-1.19-.3-2.223-.574-2.223-1.434 0-.8.731-1.348 1.793-1.348a3.731 3.731 0 0 1 2.768 1.119l.832-1.061a4.689 4.689 0 0 0 -3.485-1.334c-1.993 0-3.385 1.147-3.385 2.725 0 1.95 1.778 2.4 3.313 2.8 1.219.316 2.309.6 2.309 1.606 0 .688-.545 1.477-2.094 1.477a4.033 4.033 0 0 1 -3.012-1.348zm8.591-2.123a3.464 3.464 0 0 0 3.585 3.643 3.9 3.9 0 0 0 2.782-1.033l-.6-.846a2.945 2.945 0 0 1 -2.051.817 2.272 2.272 0 0 1 -2.352-2.151h5.476v-.316c0-2.123-1.291-3.743-3.37-3.743a3.484 3.484 0 0 0 -3.469 3.629zm3.471-2.567a2.049 2.049 0 0 1 2.109 2.065h-4.231a2.122 2.122 0 0 1 2.123-2.065zm4.991 6.038h1.291v-4.819a2.447 2.447 0 0 1 1.821-1 2.031 2.031 0 0 1 .445.043v-1.305a2.943 2.943 0 0 0 -2.266 1.219v-1.061h-1.291zm6.683 0h1.395l2.854-6.927h-1.394l-2.166 5.435-2.166-5.436h-1.377zm5.923-8.089a.82.82 0 0 0 .832-.817.832.832 0 0 0 -.832-.832.842.842 0 0 0 -.832.832.829.829 0 0 0 .833.817zm-.628 8.089h1.289v-6.927h-1.289zm2.909-3.471a3.458 3.458 0 0 0 3.528 3.643 3.026 3.026 0 0 0 2.6-1.219l-.861-.789a1.968 1.968 0 0 1 -1.681.857 2.267 2.267 0 0 1 -2.237-2.5 2.255 2.255 0 0 1 2.237-2.481 1.935 1.935 0 0 1 1.678.861l.861-.789a3.026 3.026 0 0 0 -2.6-1.219 3.446 3.446 0 0 0 -3.525 3.636zm7.113 0a3.464 3.464 0 0 0 3.585 3.643 3.9 3.9 0 0 0 2.783-1.032l-.6-.846a2.945 2.945 0 0 1 -2.051.817 2.272 2.272 0 0 1 -2.354-2.151h5.479v-.316c0-2.123-1.291-3.743-3.37-3.743a3.484 3.484 0 0 0 -3.471 3.628zm3.471-2.567a2.049 2.049 0 0 1 2.107 2.065h-4.229a2.122 2.122 0 0 1 2.122-2.065zm4.389 5.134a3.941 3.941 0 0 0 2.883 1.076c1.821 0 2.8-.932 2.8-2.123 0-1.592-1.434-1.922-2.639-2.194-.861-.2-1.606-.4-1.606-1 0-.559.545-.9 1.42-.9a2.7 2.7 0 0 1 2.051.846l.574-.9a3.707 3.707 0 0 0 -2.639-.99c-1.692 0-2.639.947-2.639 2.051 0 1.492 1.377 1.807 2.553 2.08.889.2 1.678.43 1.678 1.119 0 .588-.516.99-1.492.99a3.356 3.356 0 0 1 -2.323-.99z" fill="#35393b" transform="translate(572.751 113.348)"/><g transform="translate(188.636 57.458)"><rect fill="#fff" height="144.888" rx="10" width="191.002"/><path d="m10 1a9.01 9.01 0 0 0 -9 9v124.888a9.01 9.01 0 0 0 9 9h171a9.01 9.01 0 0 0 9-9v-124.888a9.01 9.01 0 0 0 -9-9zm0-1h171a10 10 0 0 1 10 10v124.888a10 10 0 0 1 -10 10h-171a10 10 0 0 1 -10-10v-124.888a10 10 0 0 1 10-10z" fill="#adb3bc"/></g><g transform="translate(216.637 140.59)"><rect fill="#fff" height="37.697" rx="10" width="135.508"/><path d="m10 1a9.01 9.01 0 0 0 -9 9v17.7a9.01 9.01 0 0 0 9 9h115.508a9.01 9.01 0 0 0 9-9v-17.7a9.01 9.01 0 0 0 -9-9zm0-1h115.508a10 10 0 0 1 10 10v17.7a10 10 0 0 1 -10 10h-115.508a10 10 0 0 1 -10-10v-17.7a10 10 0 0 1 10-10z" fill="#adb3bc"/></g><path d="m-42.2-3.384h4.9v-.962h-3.8v-2.272h3.726v-.962h-3.726v-2.13h3.8v-.962h-4.9zm9.8 0h.983v-3.7a1.517 1.517 0 0 0 -1.694-1.7 2.517 2.517 0 0 0 -1.869.874v-.743h-.983v5.278h.983v-3.77a1.885 1.885 0 0 1 1.453-.765c.677 0 1.125.284 1.125 1.158zm3.945 0h1.06l2.174-5.278h-1.06l-1.65 4.141-1.65-4.141h-1.049zm6.37.131a2.616 2.616 0 0 0 2.666-2.775 2.613 2.613 0 0 0 -2.666-2.765 2.62 2.62 0 0 0 -2.665 2.765 2.623 2.623 0 0 0 2.667 2.775zm0-.874a1.719 1.719 0 0 1 -1.639-1.9 1.715 1.715 0 0 1 1.639-1.89 1.709 1.709 0 0 1 1.639 1.89 1.713 1.713 0 0 1 -1.637 1.9zm3.8 1.923-.153.885a2.842 2.842 0 0 0 .612.076 1.668 1.668 0 0 0 1.683-1.136l2.6-6.283h-1.057l-1.65 4.141-1.65-4.14h-1.049l2.174 5.332-.306.7a.729.729 0 0 1 -.765.514 1.2 1.2 0 0 1 -.435-.085zm8.385-1.18h1.093v-2.808h1.978a2.18 2.18 0 0 0 2.329-2.24 2.174 2.174 0 0 0 -2.327-2.24h-3.073zm4.272-5.048a1.251 1.251 0 0 1 -1.343 1.278h-1.836v-2.556h1.836a1.251 1.251 0 0 1 1.344 1.278zm2.228 5.048h.983v-3.671a1.864 1.864 0 0 1 1.39-.765 1.548 1.548 0 0 1 .339.033v-.994a2.242 2.242 0 0 0 -1.726.929v-.809h-.986zm6.032.131a2.616 2.616 0 0 0 2.668-2.775 2.613 2.613 0 0 0 -2.666-2.765 2.62 2.62 0 0 0 -2.667 2.765 2.623 2.623 0 0 0 2.667 2.775zm0-.874a1.719 1.719 0 0 1 -1.639-1.9 1.715 1.715 0 0 1 1.639-1.89 1.709 1.709 0 0 1 1.639 1.89 1.713 1.713 0 0 1 -1.637 1.9zm6.982.743h1.116l-1.988-2.71 1.868-2.567h-1.11l-1.359 1.901-1.366-1.9h-1.115l1.858 2.566-1.978 2.71h1.115l1.486-2.054zm1.886 1.184-.153.885a2.842 2.842 0 0 0 .612.076 1.668 1.668 0 0 0 1.683-1.136l2.6-6.283h-1.06l-1.654 4.138-1.65-4.141h-1.049l2.171 5.332-.306.7a.729.729 0 0 1 -.765.514 1.2 1.2 0 0 1 -.429-.085z" fill="#35393b" transform="translate(316.254 166.194)"/><path d="m18.038 87.836.036 1.653 1.738 1.082-.036-1.653zm4.243 6.864-.036-1.617-1.519-.948a.267.267 0 0 1 -.061-.049l.035 1.634zm-5.434 2.18-3.975-2.455-.1-4.133 1.945-.839-.033-1.653-3.112 1.337a.6.6 0 0 0 -.377.583l.122 4.959a.781.781 0 0 0 .413.656l4.777 2.954a.94.94 0 0 0 .717.109c.024-.012.049-.012.073-.024l2.929-1.264-1.592-.985z" fill="#b31aab" transform="translate(225.931 71.247)"/><path d="m60.19 55.852a.952.952 0 0 0 -.474-.766l-5.8-3.586-.182.073.036 1.738 4.583 2.844.109 4.643 1.75 1.082.1-.036-.122-5.993zm-6.94 8.168-5.373-3.343-.134-5.592 2.457-1.057-.05-1.928-3.817 1.641a.7.7 0 0 0 -.438.681l.158 6.564a.908.908 0 0 0 .474.766l6.309 3.914a1.033 1.033 0 0 0 .839.122.173.173 0 0 1 .073-.024l3.732-1.6-1.848-1.143z" fill="#d163ce" transform="translate(195.448 103.135)"/><path d="m104.324 11.987-8.1-5.008a1.183 1.183 0 0 0 -.96-.134c-.024.012-.061.024-.085.036l-7.889 3.4a.8.8 0 0 0 -.5.778l.194 8.412a1.092 1.092 0 0 0 .547.875l8.083 5.008a1.177 1.177 0 0 0 .96.134c.024-.012.061-.024.085-.036l7.889-3.4a.806.806 0 0 0 .5-.778l-.194-8.412a1.067 1.067 0 0 0 -.53-.875zm-8.217 11.487-7.026-4.352-.181-7.322 6.856-2.954 7.026 4.352.17 7.305-6.844 2.966z" fill="#e13eaf" transform="translate(159.519 142.405)"/><g transform="translate(216.637 82.044)"><rect fill="#fff" height="44.688" rx="10" width="135.508"/><path d="m10 1a9.01 9.01 0 0 0 -9 9v24.688a9.01 9.01 0 0 0 9 9h115.508a9.01 9.01 0 0 0 9-9v-24.688a9.01 9.01 0 0 0 -9-9zm0-1h115.508a10 10 0 0 1 10 10v24.688a10 10 0 0 1 -10 10h-115.508a10 10 0 0 1 -10-10v-24.688a10 10 0 0 1 10-10z" fill="#adb3bc"/></g><path d="m28.127 8.537a2.079 2.079 0 0 0 -1.027-1.188l-9.794-4.688a1.8 1.8 0 0 0 -.8-.161 3.389 3.389 0 0 0 -.8.064l-9.8 4.721a1.725 1.725 0 0 0 -.963 1.188l-2.409 10.565a2.026 2.026 0 0 0 .353 1.541l6.776 8.381a2.338 2.338 0 0 0 1.477.674h10.79a1.6 1.6 0 0 0 1.477-.674l6.776-8.381a2.193 2.193 0 0 0 .385-1.541z" fill="#fff" transform="translate(225.562 88.316)"/><path d="m28.127 8.537a2.079 2.079 0 0 0 -1.027-1.188l-9.794-4.688a1.8 1.8 0 0 0 -.8-.161 3.389 3.389 0 0 0 -.8.064l-9.8 4.721a1.725 1.725 0 0 0 -.963 1.188l-2.409 10.565a2.026 2.026 0 0 0 .353 1.541l6.776 8.381a2.338 2.338 0 0 0 1.477.674h10.79a1.6 1.6 0 0 0 1.477-.674l6.776-8.381a2.193 2.193 0 0 0 .385-1.541z" fill="#326de6" transform="translate(225.562 88.316)"/><path d="m33.722 25.871c-.032 0-.064 0-.064-.032s-.064-.032-.128-.032a1.563 1.563 0 0 0 -.385-.032.407.407 0 0 1 -.193-.032h-.032a6.49 6.49 0 0 1 -1.092-.193.388.388 0 0 1 -.225-.225l-.257-.064a8.375 8.375 0 0 0 -.128-2.826 8.7 8.7 0 0 0 -1.125-2.635l.193-.193v-.032a.448.448 0 0 1 .1-.289 5.75 5.75 0 0 1 .9-.642l.193-.1c.128-.064.225-.128.353-.193.032-.032.064-.032.1-.064s0-.032 0-.064a.628.628 0 0 0 .128-.9.613.613 0 0 0 -.45-.225.767.767 0 0 0 -.45.161l-.032.032c-.032.032-.064.064-.1.064a2.078 2.078 0 0 0 -.257.289c-.032.064-.1.1-.128.128a4.222 4.222 0 0 1 -.8.706.456.456 0 0 1 -.193.064.193.193 0 0 1 -.128-.032h-.032l-.257.161c-.257-.257-.546-.514-.8-.771a8.228 8.228 0 0 0 -4.175-1.67l-.032-.257v.032a.441.441 0 0 1 -.161-.257 6.415 6.415 0 0 1 .064-1.092v-.032c0-.064.032-.128.032-.193.032-.128.032-.257.064-.385v-.193a.635.635 0 0 0 -.546-.674.644.644 0 0 0 -.546.225.634.634 0 0 0 -.193.45v.161a1.612 1.612 0 0 0 .064.385.407.407 0 0 1 .032.193v.032a6.052 6.052 0 0 1 .064 1.092.441.441 0 0 1 -.161.257v.064l-.039.262c-.353.032-.706.1-1.092.161a7.655 7.655 0 0 0 -3.95 2.248l-.193-.128h-.032c-.032 0-.064.032-.128.032a.456.456 0 0 1 -.193-.064 5.921 5.921 0 0 1 -.8-.739c-.032-.064-.1-.1-.128-.128-.1-.1-.161-.193-.257-.289-.032-.032-.064-.032-.1-.064l-.027-.029a.767.767 0 0 0 -.45-.161.486.486 0 0 0 -.45.225.691.691 0 0 0 .128.9.031.031 0 0 1 .032.032s.064.064.1.064a3.5 3.5 0 0 0 .353.193l.193.1a4.559 4.559 0 0 1 .9.642.324.324 0 0 1 .1.289v-.032l.193.193c-.032.064-.064.1-.1.161a7.625 7.625 0 0 0 -1.124 5.266l-.257.064a.031.031 0 0 1 -.032.032.506.506 0 0 1 -.225.225 5.965 5.965 0 0 1 -1.092.193.407.407 0 0 0 -.193.032c-.128 0-.257.032-.385.032-.032 0-.064.032-.128.032-.032 0-.032 0-.064.032a.627.627 0 0 0 -.514.739.6.6 0 0 0 .642.45.29.29 0 0 0 .161-.032c.032 0 .032 0 .032-.032s.1 0 .128 0c.128-.032.257-.1.353-.128a.457.457 0 0 1 .193-.064h.032a5.725 5.725 0 0 1 1.06-.289h.032a.365.365 0 0 1 .257.1.031.031 0 0 1 .032.032l.289-.032a7.751 7.751 0 0 0 2.625 3.742 5.093 5.093 0 0 0 .867.578l-.161.225a.031.031 0 0 0 .032.032.38.38 0 0 1 .032.321 5.269 5.269 0 0 1 -.514.931v.032a.564.564 0 0 1 -.128.161c-.064.064-.128.193-.225.321-.032.032-.032.064-.064.1a.031.031 0 0 1 -.032.032.661.661 0 0 0 .257.867.6.6 0 0 0 .225.064.72.72 0 0 0 .61-.385.031.031 0 0 1 .032-.032c0-.032.032-.064.064-.1.032-.128.1-.225.128-.353l.064-.193a5.434 5.434 0 0 1 .417-1 .5.5 0 0 1 .257-.193c.032 0 .032 0 .032-.032l.128-.257a7.559 7.559 0 0 0 2.794.514 6.43 6.43 0 0 0 1.734-.225 9.593 9.593 0 0 0 1.028-.289l.128.225c.032 0 .032 0 .032.032a.5.5 0 0 1 .257.193 5.435 5.435 0 0 1 .417 1v.031l.064.193a1.15 1.15 0 0 0 .128.353c.032.032.032.064.064.1a.031.031 0 0 0 .032.032.72.72 0 0 0 .61.385.756.756 0 0 0 .257-.064.537.537 0 0 0 .289-.353.826.826 0 0 0 -.032-.482.031.031 0 0 0 -.032-.032c0-.032-.032-.064-.064-.1a1.153 1.153 0 0 0 -.225-.321.564.564 0 0 0 -.128-.161v-.06a3.794 3.794 0 0 1 -.514-.931.38.38 0 0 1 .032-.321.031.031 0 0 1 .032-.032l-.1-.257a7.937 7.937 0 0 0 3.468-4.367l.257.032a.031.031 0 0 0 .032-.032.365.365 0 0 1 .257-.1h.041a5.4 5.4 0 0 1 1.028.289h.032a.456.456 0 0 0 .193.064 1.72 1.72 0 0 0 .353.161c.032 0 .064.032.128.032.032 0 .032 0 .064.032a.29.29 0 0 0 .161.032.7.7 0 0 0 .642-.45.757.757 0 0 0 -.579-.671zm-9.28-1-.867.417-.867-.417-.225-.931.61-.771h.963l.61.771zm5.234-2.087a6.148 6.148 0 0 1 .128 2.023l-3.051-.867a.525.525 0 0 1 -.385-.642.518.518 0 0 1 .128-.225l2.404-2.179a6.533 6.533 0 0 1 .775 1.895zm-1.734-3.083-2.633 1.863a.546.546 0 0 1 -.706-.128.292.292 0 0 1 -.1-.225l-.193-3.243a6.043 6.043 0 0 1 3.629 1.734zm-5.812-1.638.642-.128-.161 3.211a.535.535 0 0 1 -.546.514.756.756 0 0 1 -.257-.064l-2.665-1.895a6.377 6.377 0 0 1 2.986-1.633zm-3.918 2.826 2.376 2.119a.516.516 0 0 1 .064.739.361.361 0 0 1 -.257.161l-3.115.9a6.76 6.76 0 0 1 .931-3.914zm-.546 5.427 3.179-.546a.526.526 0 0 1 .546.417.38.38 0 0 1 -.032.321l-1.22 2.954a6.317 6.317 0 0 1 -2.474-3.141zm7.29 3.982a6.5 6.5 0 0 1 -1.381.161 7.2 7.2 0 0 1 -2.023-.321l1.574-2.858a.5.5 0 0 1 .642-.128 1.608 1.608 0 0 1 .257.225l1.541 2.794a5.219 5.219 0 0 0 -.611.129zm3.918-2.794a6.132 6.132 0 0 1 -1.927 1.927l-1.252-3.019a.522.522 0 0 1 .289-.61.937.937 0 0 1 .289-.064l3.211.546a4.821 4.821 0 0 1 -.611 1.225z" fill="#fff" transform="translate(218.459 81.065)"/><path d="m-52.2-4.521h1.778l-4.258-5.034 3.944-4.532h-1.778l-4 4.747v-4.747h-1.436v9.566h1.434v-3.141l.9-1.018zm2.625-2.438c0 1.678 1.621 2.61 3.557 2.61 1.907 0 3.528-.947 3.528-2.61a2.807 2.807 0 0 0 -2.209-2.5 2.5 2.5 0 0 0 2.065-2.28c0-1.735-1.764-2.5-3.385-2.5-1.664 0-3.4.76-3.4 2.5a2.481 2.481 0 0 0 2.051 2.28 2.807 2.807 0 0 0 -2.206 2.5zm5.493-4.561c0 1.018-1.348 1.391-1.936 1.492-.588-.1-1.95-.473-1.95-1.492 0-.9.832-1.434 1.95-1.434 1.076 0 1.937.531 1.937 1.434zm.158 4.389c0 .932-.99 1.506-2.094 1.506-1.147 0-2.108-.574-2.108-1.506 0-1.119 1.506-1.606 2.108-1.678.574.072 2.095.559 2.095 1.678zm2.538 1.707a3.941 3.941 0 0 0 2.886 1.075c1.821 0 2.8-.932 2.8-2.123 0-1.592-1.434-1.922-2.639-2.194-.861-.2-1.606-.4-1.606-1 0-.559.545-.9 1.42-.9a2.7 2.7 0 0 1 2.051.846l.574-.9a3.707 3.707 0 0 0 -2.639-.99c-1.692 0-2.639.947-2.639 2.051 0 1.492 1.377 1.807 2.553 2.08.889.2 1.678.43 1.678 1.119 0 .588-.516.99-1.492.99a3.356 3.356 0 0 1 -2.323-.99zm10.455-.445a4.895 4.895 0 0 0 3.772 1.52c2.582 0 3.614-1.391 3.614-2.883 0-2.037-1.821-2.524-3.385-2.94-1.19-.3-2.223-.574-2.223-1.434 0-.8.731-1.348 1.793-1.348a3.731 3.731 0 0 1 2.768 1.119l.832-1.061a4.689 4.689 0 0 0 -3.485-1.334c-1.993 0-3.385 1.147-3.385 2.725 0 1.95 1.778 2.4 3.313 2.8 1.219.316 2.309.6 2.309 1.606 0 .688-.545 1.477-2.094 1.477a4.033 4.033 0 0 1 -3.012-1.348zm8.591-2.123a3.464 3.464 0 0 0 3.585 3.643 3.9 3.9 0 0 0 2.782-1.033l-.6-.846a2.945 2.945 0 0 1 -2.051.817 2.272 2.272 0 0 1 -2.352-2.151h5.476v-.316c0-2.123-1.291-3.743-3.37-3.743a3.484 3.484 0 0 0 -3.469 3.629zm3.471-2.567a2.049 2.049 0 0 1 2.109 2.065h-4.231a2.122 2.122 0 0 1 2.123-2.065zm4.991 6.038h1.291v-4.819a2.447 2.447 0 0 1 1.821-1 2.031 2.031 0 0 1 .445.043v-1.305a2.943 2.943 0 0 0 -2.266 1.219v-1.061h-1.291zm6.683 0h1.395l2.854-6.927h-1.394l-2.166 5.435-2.166-5.436h-1.377zm5.923-8.089a.82.82 0 0 0 .832-.817.832.832 0 0 0 -.832-.832.842.842 0 0 0 -.832.832.829.829 0 0 0 .833.817zm-.628 8.089h1.289v-6.927h-1.289zm2.909-3.471a3.458 3.458 0 0 0 3.528 3.643 3.026 3.026 0 0 0 2.6-1.219l-.861-.789a1.968 1.968 0 0 1 -1.681.857 2.267 2.267 0 0 1 -2.237-2.5 2.255 2.255 0 0 1 2.237-2.481 1.935 1.935 0 0 1 1.678.861l.861-.789a3.026 3.026 0 0 0 -2.6-1.219 3.446 3.446 0 0 0 -3.525 3.636zm7.113 0a3.464 3.464 0 0 0 3.585 3.643 3.9 3.9 0 0 0 2.783-1.032l-.6-.846a2.945 2.945 0 0 1 -2.051.817 2.272 2.272 0 0 1 -2.354-2.151h5.479v-.316c0-2.123-1.291-3.743-3.37-3.743a3.484 3.484 0 0 0 -3.471 3.628zm3.471-2.567a2.049 2.049 0 0 1 2.107 2.065h-4.229a2.122 2.122 0 0 1 2.122-2.065zm4.389 5.134a3.941 3.941 0 0 0 2.883 1.076c1.821 0 2.8-.932 2.8-2.123 0-1.592-1.434-1.922-2.639-2.194-.861-.2-1.606-.4-1.606-1 0-.559.545-.9 1.42-.9a2.7 2.7 0 0 1 2.051.846l.574-.9a3.707 3.707 0 0 0 -2.639-.99c-1.692 0-2.639.947-2.639 2.051 0 1.492 1.377 1.807 2.553 2.08.889.2 1.678.43 1.678 1.119 0 .588-.516.99-1.492.99a3.356 3.356 0 0 1 -2.323-.99z" fill="#35393b" transform="translate(318.698 113.348)"/><g transform="translate(697.997 57.458)"><rect fill="#fff" height="144.888" rx="10" width="191.002"/><path d="m10 1a9.01 9.01 0 0 0 -9 9v124.888a9.01 9.01 0 0 0 9 9h171a9.01 9.01 0 0 0 9-9v-124.888a9.01 9.01 0 0 0 -9-9zm0-1h171a10 10 0 0 1 10 10v124.888a10 10 0 0 1 -10 10h-171a10 10 0 0 1 -10-10v-124.888a10 10 0 0 1 10-10z" fill="#adb3bc"/></g><g transform="translate(725.998 140.59)"><rect fill="#fff" height="37.697" rx="10" width="135.508"/><path d="m10 1a9.01 9.01 0 0 0 -9 9v17.7a9.01 9.01 0 0 0 9 9h115.508a9.01 9.01 0 0 0 9-9v-17.7a9.01 9.01 0 0 0 -9-9zm0-1h115.508a10 10 0 0 1 10 10v17.7a10 10 0 0 1 -10 10h-115.508a10 10 0 0 1 -10-10v-17.7a10 10 0 0 1 10-10z" fill="#adb3bc"/></g><path d="m-42.2-3.384h4.9v-.962h-3.8v-2.272h3.726v-.962h-3.726v-2.13h3.8v-.962h-4.9zm9.8 0h.983v-3.7a1.517 1.517 0 0 0 -1.694-1.7 2.517 2.517 0 0 0 -1.869.874v-.743h-.983v5.278h.983v-3.77a1.885 1.885 0 0 1 1.453-.765c.677 0 1.125.284 1.125 1.158zm3.945 0h1.06l2.174-5.278h-1.06l-1.65 4.141-1.65-4.141h-1.049zm6.37.131a2.616 2.616 0 0 0 2.666-2.775 2.613 2.613 0 0 0 -2.666-2.765 2.62 2.62 0 0 0 -2.665 2.765 2.623 2.623 0 0 0 2.667 2.775zm0-.874a1.719 1.719 0 0 1 -1.639-1.9 1.715 1.715 0 0 1 1.639-1.89 1.709 1.709 0 0 1 1.639 1.89 1.713 1.713 0 0 1 -1.637 1.9zm3.8 1.923-.153.885a2.842 2.842 0 0 0 .612.076 1.668 1.668 0 0 0 1.683-1.136l2.6-6.283h-1.057l-1.65 4.141-1.65-4.14h-1.049l2.174 5.332-.306.7a.729.729 0 0 1 -.765.514 1.2 1.2 0 0 1 -.435-.085zm8.385-1.18h1.093v-2.808h1.978a2.18 2.18 0 0 0 2.329-2.24 2.174 2.174 0 0 0 -2.327-2.24h-3.073zm4.272-5.048a1.251 1.251 0 0 1 -1.343 1.278h-1.836v-2.556h1.836a1.251 1.251 0 0 1 1.344 1.278zm2.228 5.048h.983v-3.671a1.864 1.864 0 0 1 1.39-.765 1.548 1.548 0 0 1 .339.033v-.994a2.242 2.242 0 0 0 -1.726.929v-.809h-.986zm6.032.131a2.616 2.616 0 0 0 2.668-2.775 2.613 2.613 0 0 0 -2.666-2.765 2.62 2.62 0 0 0 -2.667 2.765 2.623 2.623 0 0 0 2.667 2.775zm0-.874a1.719 1.719 0 0 1 -1.639-1.9 1.715 1.715 0 0 1 1.639-1.89 1.709 1.709 0 0 1 1.639 1.89 1.713 1.713 0 0 1 -1.637 1.9zm6.982.743h1.116l-1.988-2.71 1.868-2.567h-1.11l-1.359 1.901-1.366-1.9h-1.115l1.858 2.566-1.978 2.71h1.115l1.486-2.054zm1.886 1.184-.153.885a2.842 2.842 0 0 0 .612.076 1.668 1.668 0 0 0 1.683-1.136l2.6-6.283h-1.06l-1.654 4.138-1.65-4.141h-1.049l2.171 5.332-.306.7a.729.729 0 0 1 -.765.514 1.2 1.2 0 0 1 -.429-.085z" fill="#35393b" transform="translate(825.615 166.194)"/><path d="m18.038 87.836.036 1.653 1.738 1.082-.036-1.653zm4.243 6.864-.036-1.617-1.519-.948a.267.267 0 0 1 -.061-.049l.035 1.634zm-5.434 2.18-3.975-2.455-.1-4.133 1.945-.839-.033-1.653-3.112 1.337a.6.6 0 0 0 -.377.583l.122 4.959a.781.781 0 0 0 .413.656l4.777 2.954a.94.94 0 0 0 .717.109c.024-.012.049-.012.073-.024l2.929-1.264-1.592-.985z" fill="#b31aab" transform="translate(735.292 71.247)"/><path d="m60.19 55.852a.952.952 0 0 0 -.474-.766l-5.8-3.586-.182.073.036 1.738 4.583 2.844.109 4.643 1.75 1.082.1-.036-.122-5.993zm-6.94 8.168-5.373-3.343-.134-5.592 2.457-1.057-.05-1.928-3.817 1.641a.7.7 0 0 0 -.438.681l.158 6.564a.908.908 0 0 0 .474.766l6.309 3.914a1.033 1.033 0 0 0 .839.122.173.173 0 0 1 .073-.024l3.732-1.6-1.848-1.143z" fill="#d163ce" transform="translate(704.809 103.135)"/><path d="m104.324 11.987-8.1-5.008a1.183 1.183 0 0 0 -.96-.134c-.024.012-.061.024-.085.036l-7.889 3.4a.8.8 0 0 0 -.5.778l.194 8.412a1.092 1.092 0 0 0 .547.875l8.083 5.008a1.177 1.177 0 0 0 .96.134c.024-.012.061-.024.085-.036l7.889-3.4a.806.806 0 0 0 .5-.778l-.194-8.412a1.067 1.067 0 0 0 -.53-.875zm-8.217 11.487-7.026-4.352-.181-7.322 6.856-2.954 7.026 4.352.17 7.305-6.844 2.966z" fill="#e13eaf" transform="translate(668.88 142.405)"/><g transform="translate(725.998 82.044)"><rect fill="#fff" height="44.688" rx="10" width="135.508"/><path d="m10 1a9.01 9.01 0 0 0 -9 9v24.688a9.01 9.01 0 0 0 9 9h115.508a9.01 9.01 0 0 0 9-9v-24.688a9.01 9.01 0 0 0 -9-9zm0-1h115.508a10 10 0 0 1 10 10v24.688a10 10 0 0 1 -10 10h-115.508a10 10 0 0 1 -10-10v-24.688a10 10 0 0 1 10-10z" fill="#adb3bc"/></g><path d="m28.127 8.537a2.079 2.079 0 0 0 -1.027-1.188l-9.794-4.688a1.8 1.8 0 0 0 -.8-.161 3.389 3.389 0 0 0 -.8.064l-9.8 4.721a1.725 1.725 0 0 0 -.963 1.188l-2.409 10.565a2.026 2.026 0 0 0 .353 1.541l6.776 8.381a2.338 2.338 0 0 0 1.477.674h10.79a1.6 1.6 0 0 0 1.477-.674l6.776-8.381a2.193 2.193 0 0 0 .385-1.541z" fill="#fff" transform="translate(734.923 88.316)"/><path d="m28.127 8.537a2.079 2.079 0 0 0 -1.027-1.188l-9.794-4.688a1.8 1.8 0 0 0 -.8-.161 3.389 3.389 0 0 0 -.8.064l-9.8 4.721a1.725 1.725 0 0 0 -.963 1.188l-2.409 10.565a2.026 2.026 0 0 0 .353 1.541l6.776 8.381a2.338 2.338 0 0 0 1.477.674h10.79a1.6 1.6 0 0 0 1.477-.674l6.776-8.381a2.193 2.193 0 0 0 .385-1.541z" fill="#326de6" transform="translate(734.923 88.316)"/><path d="m33.722 25.871c-.032 0-.064 0-.064-.032s-.064-.032-.128-.032a1.563 1.563 0 0 0 -.385-.032.407.407 0 0 1 -.193-.032h-.032a6.49 6.49 0 0 1 -1.092-.193.388.388 0 0 1 -.225-.225l-.257-.064a8.375 8.375 0 0 0 -.128-2.826 8.7 8.7 0 0 0 -1.125-2.635l.193-.193v-.032a.448.448 0 0 1 .1-.289 5.75 5.75 0 0 1 .9-.642l.193-.1c.128-.064.225-.128.353-.193.032-.032.064-.032.1-.064s0-.032 0-.064a.628.628 0 0 0 .128-.9.613.613 0 0 0 -.45-.225.767.767 0 0 0 -.45.161l-.032.032c-.032.032-.064.064-.1.064a2.078 2.078 0 0 0 -.257.289c-.032.064-.1.1-.128.128a4.222 4.222 0 0 1 -.8.706.456.456 0 0 1 -.193.064.193.193 0 0 1 -.128-.032h-.032l-.257.161c-.257-.257-.546-.514-.8-.771a8.228 8.228 0 0 0 -4.175-1.67l-.032-.257v.032a.441.441 0 0 1 -.161-.257 6.415 6.415 0 0 1 .064-1.092v-.032c0-.064.032-.128.032-.193.032-.128.032-.257.064-.385v-.193a.635.635 0 0 0 -.546-.674.644.644 0 0 0 -.546.225.634.634 0 0 0 -.193.45v.161a1.612 1.612 0 0 0 .064.385.407.407 0 0 1 .032.193v.032a6.052 6.052 0 0 1 .064 1.092.441.441 0 0 1 -.161.257v.064l-.039.262c-.353.032-.706.1-1.092.161a7.655 7.655 0 0 0 -3.95 2.248l-.193-.128h-.032c-.032 0-.064.032-.128.032a.456.456 0 0 1 -.193-.064 5.921 5.921 0 0 1 -.8-.739c-.032-.064-.1-.1-.128-.128-.1-.1-.161-.193-.257-.289-.032-.032-.064-.032-.1-.064l-.027-.029a.767.767 0 0 0 -.45-.161.486.486 0 0 0 -.45.225.691.691 0 0 0 .128.9.031.031 0 0 1 .032.032s.064.064.1.064a3.5 3.5 0 0 0 .353.193l.193.1a4.559 4.559 0 0 1 .9.642.324.324 0 0 1 .1.289v-.032l.193.193c-.032.064-.064.1-.1.161a7.625 7.625 0 0 0 -1.124 5.266l-.257.064a.031.031 0 0 1 -.032.032.506.506 0 0 1 -.225.225 5.965 5.965 0 0 1 -1.092.193.407.407 0 0 0 -.193.032c-.128 0-.257.032-.385.032-.032 0-.064.032-.128.032-.032 0-.032 0-.064.032a.627.627 0 0 0 -.514.739.6.6 0 0 0 .642.45.29.29 0 0 0 .161-.032c.032 0 .032 0 .032-.032s.1 0 .128 0c.128-.032.257-.1.353-.128a.457.457 0 0 1 .193-.064h.032a5.725 5.725 0 0 1 1.06-.289h.032a.365.365 0 0 1 .257.1.031.031 0 0 1 .032.032l.289-.032a7.751 7.751 0 0 0 2.625 3.742 5.093 5.093 0 0 0 .867.578l-.161.225a.031.031 0 0 0 .032.032.38.38 0 0 1 .032.321 5.269 5.269 0 0 1 -.514.931v.032a.564.564 0 0 1 -.128.161c-.064.064-.128.193-.225.321-.032.032-.032.064-.064.1a.031.031 0 0 1 -.032.032.661.661 0 0 0 .257.867.6.6 0 0 0 .225.064.72.72 0 0 0 .61-.385.031.031 0 0 1 .032-.032c0-.032.032-.064.064-.1.032-.128.1-.225.128-.353l.064-.193a5.434 5.434 0 0 1 .417-1 .5.5 0 0 1 .257-.193c.032 0 .032 0 .032-.032l.128-.257a7.559 7.559 0 0 0 2.794.514 6.43 6.43 0 0 0 1.734-.225 9.593 9.593 0 0 0 1.028-.289l.128.225c.032 0 .032 0 .032.032a.5.5 0 0 1 .257.193 5.435 5.435 0 0 1 .417 1v.031l.064.193a1.15 1.15 0 0 0 .128.353c.032.032.032.064.064.1a.031.031 0 0 0 .032.032.72.72 0 0 0 .61.385.756.756 0 0 0 .257-.064.537.537 0 0 0 .289-.353.826.826 0 0 0 -.032-.482.031.031 0 0 0 -.032-.032c0-.032-.032-.064-.064-.1a1.153 1.153 0 0 0 -.225-.321.564.564 0 0 0 -.128-.161v-.06a3.794 3.794 0 0 1 -.514-.931.38.38 0 0 1 .032-.321.031.031 0 0 1 .032-.032l-.1-.257a7.937 7.937 0 0 0 3.468-4.367l.257.032a.031.031 0 0 0 .032-.032.365.365 0 0 1 .257-.1h.041a5.4 5.4 0 0 1 1.028.289h.032a.456.456 0 0 0 .193.064 1.72 1.72 0 0 0 .353.161c.032 0 .064.032.128.032.032 0 .032 0 .064.032a.29.29 0 0 0 .161.032.7.7 0 0 0 .642-.45.757.757 0 0 0 -.579-.671zm-9.28-1-.867.417-.867-.417-.225-.931.61-.771h.963l.61.771zm5.234-2.087a6.148 6.148 0 0 1 .128 2.023l-3.051-.867a.525.525 0 0 1 -.385-.642.518.518 0 0 1 .128-.225l2.404-2.179a6.533 6.533 0 0 1 .775 1.895zm-1.734-3.083-2.633 1.863a.546.546 0 0 1 -.706-.128.292.292 0 0 1 -.1-.225l-.193-3.243a6.043 6.043 0 0 1 3.629 1.734zm-5.812-1.638.642-.128-.161 3.211a.535.535 0 0 1 -.546.514.756.756 0 0 1 -.257-.064l-2.665-1.895a6.377 6.377 0 0 1 2.986-1.633zm-3.918 2.826 2.376 2.119a.516.516 0 0 1 .064.739.361.361 0 0 1 -.257.161l-3.115.9a6.76 6.76 0 0 1 .931-3.914zm-.546 5.427 3.179-.546a.526.526 0 0 1 .546.417.38.38 0 0 1 -.032.321l-1.22 2.954a6.317 6.317 0 0 1 -2.474-3.141zm7.29 3.982a6.5 6.5 0 0 1 -1.381.161 7.2 7.2 0 0 1 -2.023-.321l1.574-2.858a.5.5 0 0 1 .642-.128 1.608 1.608 0 0 1 .257.225l1.541 2.794a5.219 5.219 0 0 0 -.611.129zm3.918-2.794a6.132 6.132 0 0 1 -1.927 1.927l-1.252-3.019a.522.522 0 0 1 .289-.61.937.937 0 0 1 .289-.064l3.211.546a4.821 4.821 0 0 1 -.611 1.225z" fill="#fff" transform="translate(727.82 81.065)"/><path d="m-52.2-4.521h1.778l-4.258-5.034 3.944-4.532h-1.778l-4 4.747v-4.747h-1.436v9.566h1.434v-3.141l.9-1.018zm2.625-2.438c0 1.678 1.621 2.61 3.557 2.61 1.907 0 3.528-.947 3.528-2.61a2.807 2.807 0 0 0 -2.209-2.5 2.5 2.5 0 0 0 2.065-2.28c0-1.735-1.764-2.5-3.385-2.5-1.664 0-3.4.76-3.4 2.5a2.481 2.481 0 0 0 2.051 2.28 2.807 2.807 0 0 0 -2.206 2.5zm5.493-4.561c0 1.018-1.348 1.391-1.936 1.492-.588-.1-1.95-.473-1.95-1.492 0-.9.832-1.434 1.95-1.434 1.076 0 1.937.531 1.937 1.434zm.158 4.389c0 .932-.99 1.506-2.094 1.506-1.147 0-2.108-.574-2.108-1.506 0-1.119 1.506-1.606 2.108-1.678.574.072 2.095.559 2.095 1.678zm2.538 1.707a3.941 3.941 0 0 0 2.886 1.075c1.821 0 2.8-.932 2.8-2.123 0-1.592-1.434-1.922-2.639-2.194-.861-.2-1.606-.4-1.606-1 0-.559.545-.9 1.42-.9a2.7 2.7 0 0 1 2.051.846l.574-.9a3.707 3.707 0 0 0 -2.639-.99c-1.692 0-2.639.947-2.639 2.051 0 1.492 1.377 1.807 2.553 2.08.889.2 1.678.43 1.678 1.119 0 .588-.516.99-1.492.99a3.356 3.356 0 0 1 -2.323-.99zm10.455-.445a4.895 4.895 0 0 0 3.772 1.52c2.582 0 3.614-1.391 3.614-2.883 0-2.037-1.821-2.524-3.385-2.94-1.19-.3-2.223-.574-2.223-1.434 0-.8.731-1.348 1.793-1.348a3.731 3.731 0 0 1 2.768 1.119l.832-1.061a4.689 4.689 0 0 0 -3.485-1.334c-1.993 0-3.385 1.147-3.385 2.725 0 1.95 1.778 2.4 3.313 2.8 1.219.316 2.309.6 2.309 1.606 0 .688-.545 1.477-2.094 1.477a4.033 4.033 0 0 1 -3.012-1.348zm8.591-2.123a3.464 3.464 0 0 0 3.585 3.643 3.9 3.9 0 0 0 2.782-1.033l-.6-.846a2.945 2.945 0 0 1 -2.051.817 2.272 2.272 0 0 1 -2.352-2.151h5.476v-.316c0-2.123-1.291-3.743-3.37-3.743a3.484 3.484 0 0 0 -3.469 3.629zm3.471-2.567a2.049 2.049 0 0 1 2.109 2.065h-4.231a2.122 2.122 0 0 1 2.123-2.065zm4.991 6.038h1.291v-4.819a2.447 2.447 0 0 1 1.821-1 2.031 2.031 0 0 1 .445.043v-1.305a2.943 2.943 0 0 0 -2.266 1.219v-1.061h-1.291zm6.683 0h1.395l2.854-6.927h-1.394l-2.166 5.435-2.166-5.436h-1.377zm5.923-8.089a.82.82 0 0 0 .832-.817.832.832 0 0 0 -.832-.832.842.842 0 0 0 -.832.832.829.829 0 0 0 .833.817zm-.628 8.089h1.289v-6.927h-1.289zm2.909-3.471a3.458 3.458 0 0 0 3.528 3.643 3.026 3.026 0 0 0 2.6-1.219l-.861-.789a1.968 1.968 0 0 1 -1.681.857 2.267 2.267 0 0 1 -2.237-2.5 2.255 2.255 0 0 1 2.237-2.481 1.935 1.935 0 0 1 1.678.861l.861-.789a3.026 3.026 0 0 0 -2.6-1.219 3.446 3.446 0 0 0 -3.525 3.636zm7.113 0a3.464 3.464 0 0 0 3.585 3.643 3.9 3.9 0 0 0 2.783-1.032l-.6-.846a2.945 2.945 0 0 1 -2.051.817 2.272 2.272 0 0 1 -2.354-2.151h5.479v-.316c0-2.123-1.291-3.743-3.37-3.743a3.484 3.484 0 0 0 -3.471 3.628zm3.471-2.567a2.049 2.049 0 0 1 2.107 2.065h-4.229a2.122 2.122 0 0 1 2.122-2.065zm4.389 5.134a3.941 3.941 0 0 0 2.883 1.076c1.821 0 2.8-.932 2.8-2.123 0-1.592-1.434-1.922-2.639-2.194-.861-.2-1.606-.4-1.606-1 0-.559.545-.9 1.42-.9a2.7 2.7 0 0 1 2.051.846l.574-.9a3.707 3.707 0 0 0 -2.639-.99c-1.692 0-2.639.947-2.639 2.051 0 1.492 1.377 1.807 2.553 2.08.889.2 1.678.43 1.678 1.119 0 .588-.516.99-1.492.99a3.356 3.356 0 0 1 -2.323-.99z" fill="#35393b" transform="translate(828.059 113.348)"/><g opacity=".503"><rect fill="#f9f9f9" height="167.818" rx="5" width="786" x="145.5" y="259.4"/><path d="m5-.5v1a4.471 4.471 0 0 0 -2.582.814l-.574-.814a5.466 5.466 0 0 1 3.156-1zm0 0h6v1h-6zm12 0h6v1h-6zm12 0h6v1h-6zm12 0h6v1h-6zm12 0h6v1h-6zm12 0h6v1h-6zm12 0h6v1h-6zm12 0h6v1h-6zm12 0h6v1h-6zm12 0h6v1h-6zm12 0h6v1h-6zm12 0h6v1h-6zm12 0h6v1h-6zm12 0h6v1h-6zm12 0h6v1h-6zm12 0h6v1h-6zm12 0h6v1h-6zm12 0h6v1h-6zm12 0h6v1h-6zm12 0h6v1h-6zm12 0h6v1h-6zm12 0h6v1h-6zm12 0h6v1h-6zm12 0h6v1h-6zm12 0h6v1h-6zm12 0h6v1h-6zm12 0h6v1h-6zm12 0h6v1h-6zm12 0h6v1h-6zm12 0h6v1h-6zm12 0h6v1h-6zm12 0h6v1h-6zm12 0h6v1h-6zm12 0h6v1h-6zm12 0h6v1h-6zm12 0h6v1h-6zm12 0h6v1h-6zm12 0h6v1h-6zm12 0h6v1h-6zm12 0h6v1h-6zm12 0h6v1h-6zm12 0h6v1h-6zm12 0h6v1h-6zm12 0h6v1h-6zm12 0h6v1h-6zm12 0h6v1h-6zm12 0h6v1h-6zm12 0h6v1h-6zm12 0h6v1h-6zm12 0h6v1h-6zm12 0h6v1h-6zm12 0h6v1h-6zm12 0h6v1h-6zm12 0h6v1h-6zm12 0h6v1h-6zm12 0h6v1h-6zm12 0h6v1h-6zm12 0h6v1h-6zm12 0h6v1h-6zm12 0h6v1h-6zm12 0h6v1h-6zm12 0h6v1h-6zm12 0h6v1h-6zm12 0h6v1h-6zm12 0h6v1h-6zm11.945 1.668a5.471 5.471 0 0 1 1.555 3.832v2.145h-1v-2.145a4.476 4.476 0 0 0 -1.272-3.135zm-785.445 5.032h1v6h-1zm786 6.944h1v6h-1zm-786 5.056h1v6h-1zm786 6.944h1v6h-1zm-786 5.056h1v6h-1zm786 6.944h1v6h-1zm-786 5.056h1v6h-1zm786 6.944h1v6h-1zm-786 5.056h1v6h-1zm786 6.944h1v6h-1zm-786 5.056h1v6h-1zm786 6.944h1v6h-1zm-786 5.056h1v6h-1zm786 6.944h1v6h-1zm-786 5.056h1v6h-1zm786 6.944h1v6h-1zm-786 5.056h1v6h-1zm786 6.944h1v6h-1zm-786 5.056h1v6h-1zm786 6.944h1v6h-1zm-786 5.056h1v6h-1zm786 6.944h1v6h-1zm-786 5.056h1v6h-1zm786 6.944h1v6h-1zm-786 5.056h1v6h-1zm786 6.944h1v5.673c0 .119 0 .24-.011.359l-1-.064c.006-.1.009-.2.009-.295zm-786 5.056h1v.617a4.5 4.5 0 0 0 2.365 3.962l-.475.88a5.5 5.5 0 0 1 -2.89-4.841zm782.854 4.91.3.954a5.5 5.5 0 0 1 -1.655.253h-4.472v-1h4.473a4.5 4.5 0 0 0 1.354-.206zm-773.826.207h6v1h-6zm12 0h6v1h-6zm12 0h6v1h-6zm12 0h6v1h-6zm12 0h6v1h-6zm12 0h6v1h-6zm12 0h6v1h-6zm12 0h6v1h-6zm12 0h6v1h-6zm12 0h6v1h-6zm12 0h6v1h-6zm12 0h6v1h-6zm12 0h6v1h-6zm12 0h6v1h-6zm12 0h6v1h-6zm12 0h6v1h-6zm12 0h6v1h-6zm12 0h6v1h-6zm12 0h6v1h-6zm12 0h6v1h-6zm12 0h6v1h-6zm12 0h6v1h-6zm12 0h6v1h-6zm12 0h6v1h-6zm12 0h6v1h-6zm12 0h6v1h-6zm12 0h6v1h-6zm12 0h6v1h-6zm12 0h6v1h-6zm12 0h6v1h-6zm12 0h6v1h-6zm12 0h6v1h-6zm12 0h6v1h-6zm12 0h6v1h-6zm12 0h6v1h-6zm12 0h6v1h-6zm12 0h6v1h-6zm12 0h6v1h-6zm12 0h6v1h-6zm12 0h6v1h-6zm12 0h6v1h-6zm12 0h6v1h-6zm12 0h6v1h-6zm12 0h6v1h-6zm12 0h6v1h-6zm12 0h6v1h-6zm12 0h6v1h-6zm12 0h6v1h-6zm12 0h6v1h-6zm12 0h6v1h-6zm12 0h6v1h-6zm12 0h6v1h-6zm12 0h6v1h-6zm12 0h6v1h-6zm12 0h6v1h-6zm12 0h6v1h-6zm12 0h6v1h-6zm12 0h6v1h-6zm12 0h6v1h-6zm12 0h6v1h-6zm12 0h6v1h-6zm12 0h6v1h-6zm12 0h6v1h-6zm12 0h6v1h-6z" fill="#adb3bc" transform="translate(145.5 259.4)"/></g><path d="m-65.266-4.963a4.964 4.964 0 0 0 4.343-2.311l-1.393-.738a3.465 3.465 0 0 1 -2.95 1.59 3.957 3.957 0 0 1 -3.917-4.2 3.948 3.948 0 0 1 3.917-4.2 3.465 3.465 0 0 1 2.95 1.59l1.393-.738a4.944 4.944 0 0 0 -4.343-2.311 5.474 5.474 0 0 0 -5.606 5.655 5.474 5.474 0 0 0 5.606 5.663zm9.457 0a3.925 3.925 0 0 0 4-4.163 3.92 3.92 0 0 0 -4-4.147 3.929 3.929 0 0 0 -4 4.147 3.934 3.934 0 0 0 4 4.163zm0-1.311a2.579 2.579 0 0 1 -2.459-2.852 2.573 2.573 0 0 1 2.459-2.836 2.563 2.563 0 0 1 2.459 2.836 2.569 2.569 0 0 1 -2.459 2.852zm11.209 1.115h1.475v-5.556a2.275 2.275 0 0 0 -2.541-2.557 3.775 3.775 0 0 0 -2.8 1.311v-1.115h-1.475v7.917h1.475v-5.655a2.828 2.828 0 0 1 2.18-1.147c1.016 0 1.688.426 1.688 1.737zm6 .2a2.1 2.1 0 0 0 1.541-.508l-.377-1.115a1.135 1.135 0 0 1 -.8.311c-.508 0-.77-.41-.77-.967v-4.54h1.606v-1.295h-1.606v-2.164h-1.475v2.164h-1.319v1.295h1.311v4.868a1.723 1.723 0 0 0 1.889 1.947zm2.836-.2h1.475v-5.507a2.8 2.8 0 0 1 2.082-1.147 2.321 2.321 0 0 1 .508.049v-1.492a3.363 3.363 0 0 0 -2.59 1.393v-1.213h-1.475zm9.048.2a3.925 3.925 0 0 0 4-4.163 3.92 3.92 0 0 0 -4-4.147 3.929 3.929 0 0 0 -4 4.147 3.934 3.934 0 0 0 4 4.159zm0-1.311a2.579 2.579 0 0 1 -2.459-2.852 2.573 2.573 0 0 1 2.459-2.836 2.563 2.563 0 0 1 2.459 2.836 2.569 2.569 0 0 1 -2.459 2.848zm5.868 1.115h1.475v-10.937h-1.475zm8.081 0h1.639v-4.217h2.967a3.27 3.27 0 0 0 3.491-3.36 3.261 3.261 0 0 0 -3.491-3.36h-4.606zm6.409-7.572a1.877 1.877 0 0 1 -2.016 1.918h-2.754v-3.835h2.754a1.877 1.877 0 0 1 2.015 1.912zm3.344 7.572h1.474v-10.937h-1.475zm8.7 0h1.477v-5.345c0-2.016-1.459-2.77-3.18-2.77a4.45 4.45 0 0 0 -3.245 1.292l.639 1.016a3.239 3.239 0 0 1 2.377-1.048c1.131 0 1.934.59 1.934 1.573v1.311a3.3 3.3 0 0 0 -2.588-1.049 2.555 2.555 0 0 0 -2.755 2.59 2.631 2.631 0 0 0 2.755 2.622 3.393 3.393 0 0 0 2.59-1.065zm0-1.737a2.508 2.508 0 0 1 -2.03.892 1.634 1.634 0 0 1 -1.82-1.569 1.634 1.634 0 0 1 1.82-1.573 2.508 2.508 0 0 1 2.032.9zm9.179 1.737h1.475v-5.556a2.275 2.275 0 0 0 -2.54-2.562 3.775 3.775 0 0 0 -2.8 1.312v-1.115h-1.476v7.917h1.476v-5.655a2.828 2.828 0 0 1 2.18-1.147c1.016 0 1.688.426 1.688 1.737zm3.327-3.967a3.959 3.959 0 0 0 4.1 4.163 4.453 4.453 0 0 0 3.18-1.18l-.688-.967a3.366 3.366 0 0 1 -2.344.934 2.6 2.6 0 0 1 -2.688-2.459h6.261v-.361c0-2.426-1.475-4.278-3.852-4.278a3.981 3.981 0 0 0 -3.967 4.144zm3.967-2.934a2.342 2.342 0 0 1 2.411 2.356h-4.835a2.425 2.425 0 0 1 2.426-2.36z" fill="#35393b" transform="translate(561.002 410.402)"/><path d="m-53.659-4.864h3.738a5.1 5.1 0 0 0 5.435-5.231 5.115 5.115 0 0 0 -5.435-5.246h-3.738zm1.571-1.382v-7.712h2.168a3.621 3.621 0 0 1 3.82 3.863 3.651 3.651 0 0 1 -3.817 3.848zm14.153 1.382h1.414v-5.121c0-1.932-1.4-2.655-3.047-2.655a4.265 4.265 0 0 0 -3.11 1.241l.613.974a3.1 3.1 0 0 1 2.278-1.005c1.084 0 1.853.565 1.853 1.508v1.257a3.164 3.164 0 0 0 -2.482-1.005 2.449 2.449 0 0 0 -2.639 2.482 2.521 2.521 0 0 0 2.639 2.513 3.252 3.252 0 0 0 2.48-1.025zm0-1.665a2.4 2.4 0 0 1 -1.948.864 1.566 1.566 0 0 1 -1.744-1.508 1.566 1.566 0 0 1 1.744-1.508 2.4 2.4 0 0 1 1.948.864zm5.765 1.853a2.013 2.013 0 0 0 1.477-.487l-.361-1.068a1.087 1.087 0 0 1 -.77.3c-.487 0-.738-.393-.738-.927v-4.352h1.539v-1.241h-1.539v-2.073h-1.414v2.073h-1.257v1.241h1.257v4.665a1.651 1.651 0 0 0 1.805 1.869zm7.4-.188h1.414v-5.121c0-1.932-1.4-2.655-3.047-2.655a4.265 4.265 0 0 0 -3.11 1.241l.613.974a3.1 3.1 0 0 1 2.278-1.005c1.084 0 1.853.565 1.853 1.508v1.257a3.164 3.164 0 0 0 -2.482-1.005 2.449 2.449 0 0 0 -2.639 2.482 2.521 2.521 0 0 0 2.639 2.513 3.252 3.252 0 0 0 2.478-1.025zm0-1.665a2.4 2.4 0 0 1 -1.948.864 1.566 1.566 0 0 1 -1.744-1.508 1.566 1.566 0 0 1 1.742-1.508 2.4 2.4 0 0 1 1.948.864zm7.76 1.665h1.571v-4.036h2.839a3.134 3.134 0 0 0 3.346-3.22 3.125 3.125 0 0 0 -3.346-3.22h-4.414zm6.142-7.257a1.8 1.8 0 0 1 -1.932 1.838h-2.639v-3.676h2.639a1.8 1.8 0 0 1 1.928 1.838zm3.2 7.257h1.414v-10.477h-1.413zm8.341 0h1.414v-5.121c0-1.932-1.4-2.655-3.047-2.655a4.265 4.265 0 0 0 -3.11 1.24l.613.974a3.1 3.1 0 0 1 2.277-1.004c1.084 0 1.853.565 1.853 1.508v1.257a3.164 3.164 0 0 0 -2.481-1.006 2.449 2.449 0 0 0 -2.639 2.482 2.521 2.521 0 0 0 2.639 2.513 3.252 3.252 0 0 0 2.482-1.024zm0-1.665a2.4 2.4 0 0 1 -1.948.864 1.566 1.566 0 0 1 -1.743-1.508 1.566 1.566 0 0 1 1.744-1.508 2.4 2.4 0 0 1 1.948.864zm8.8 1.665h1.414v-5.325a2.18 2.18 0 0 0 -2.435-2.45 3.617 3.617 0 0 0 -2.686 1.257v-1.068h-1.417v7.587h1.414v-5.419a2.71 2.71 0 0 1 2.089-1.1c.974 0 1.618.408 1.618 1.665zm3.189-3.8a3.794 3.794 0 0 0 3.927 3.99 4.267 4.267 0 0 0 3.047-1.131l-.66-.927a3.225 3.225 0 0 1 -2.246.9 2.488 2.488 0 0 1 -2.576-2.356h6v-.352c0-2.325-1.414-4.1-3.691-4.1a3.815 3.815 0 0 0 -3.805 3.975zm3.8-2.812a2.244 2.244 0 0 1 2.309 2.262h-4.636a2.324 2.324 0 0 1 2.325-2.263z" fill="#35393b" transform="translate(555.544 40.784)"/><g transform="translate(388.285 284.787)"><rect fill="#f7f9ff" height="88.58" rx="7" width="299.511"/><path d="m7 1a6.007 6.007 0 0 0 -6 6v74.58a6.007 6.007 0 0 0 6 6h285.511a6.007 6.007 0 0 0 6-6v-74.58a6.007 6.007 0 0 0 -6-6zm0-1h285.511a7 7 0 0 1 7 7v74.58a7 7 0 0 1 -7 7h-285.511a7 7 0 0 1 -7-7v-74.58a7 7 0 0 1 7-7z" fill="#516ba9"/><path d="m1.924-5.6h1.776v-11.841h-1.776zm3.64-1.119a4.879 4.879 0 0 0 3.569 1.335c2.255 0 3.462-1.154 3.462-2.628 0-1.971-1.776-2.379-3.267-2.717-1.065-.249-1.989-.5-1.989-1.243 0-.693.675-1.119 1.758-1.119a3.343 3.343 0 0 1 2.539 1.048l.71-1.119a4.59 4.59 0 0 0 -3.266-1.225c-2.1 0-3.267 1.172-3.267 2.539 0 1.847 1.7 2.237 3.161 2.575 1.1.249 2.077.533 2.077 1.385 0 .728-.639 1.225-1.847 1.225a4.155 4.155 0 0 1 -2.876-1.225zm11.417 1.335a2.276 2.276 0 0 0 1.669-.55l-.408-1.207a1.229 1.229 0 0 1 -.87.337c-.55 0-.835-.444-.835-1.048v-4.919h1.74v-1.4h-1.74v-2.344h-1.6v2.344h-1.418v1.4h1.421v5.271a1.866 1.866 0 0 0 2.041 2.116zm3.853-10.228a1.016 1.016 0 0 0 1.03-1.012 1.031 1.031 0 0 0 -1.03-1.03 1.042 1.042 0 0 0 -1.03 1.03 1.027 1.027 0 0 0 1.031 1.012zm-.781 10.012h1.6v-8.576h-1.6zm7.937.213a4.252 4.252 0 0 0 4.333-4.51 4.247 4.247 0 0 0 -4.333-4.492 4.257 4.257 0 0 0 -4.333 4.492 4.262 4.262 0 0 0 4.333 4.513zm0-1.421c-1.7 0-2.663-1.456-2.663-3.09a2.788 2.788 0 0 1 2.663-3.072c1.722 0 2.663 1.456 2.663 3.072.001 1.637-.94 3.098-2.663 3.098zm10.245-.462a6.06 6.06 0 0 0 4.67 1.882c3.2 0 4.475-1.722 4.475-3.569 0-2.521-2.255-3.125-4.191-3.64-1.474-.373-2.752-.71-2.752-1.776 0-.994.906-1.669 2.22-1.669a4.62 4.62 0 0 1 3.427 1.385l1.03-1.314a5.806 5.806 0 0 0 -4.314-1.647c-2.468 0-4.191 1.421-4.191 3.374 0 2.415 2.2 2.965 4.1 3.462 1.509.391 2.859.746 2.859 1.989 0 .852-.675 1.829-2.592 1.829a4.994 4.994 0 0 1 -3.729-1.669zm10.637-2.624a4.289 4.289 0 0 0 4.439 4.51 4.824 4.824 0 0 0 3.445-1.278l-.746-1.048a3.646 3.646 0 0 1 -2.539 1.01 2.813 2.813 0 0 1 -2.912-2.663h6.783v-.391c0-2.628-1.6-4.634-4.173-4.634a4.313 4.313 0 0 0 -4.297 4.494zm4.3-3.178a2.537 2.537 0 0 1 2.61 2.557h-5.241a2.627 2.627 0 0 1 2.628-2.558zm6.176 7.472h1.6v-5.966a3.03 3.03 0 0 1 2.252-1.241 2.515 2.515 0 0 1 .55.053v-1.616a3.643 3.643 0 0 0 -2.806 1.509v-1.314h-1.6zm8.274 0h1.722l3.534-8.576h-1.722l-2.681 6.73-2.681-6.73h-1.7zm7.333-10.015a1.016 1.016 0 0 0 1.03-1.012 1.031 1.031 0 0 0 -1.03-1.03 1.042 1.042 0 0 0 -1.03 1.03 1.027 1.027 0 0 0 1.031 1.015zm-.78 10.015h1.6v-8.576h-1.6zm3.6-4.3a4.282 4.282 0 0 0 4.368 4.51 3.746 3.746 0 0 0 3.214-1.509l-1.057-.971a2.437 2.437 0 0 1 -2.082 1.07 2.807 2.807 0 0 1 -2.77-3.09 2.792 2.792 0 0 1 2.77-3.072 2.4 2.4 0 0 1 2.082 1.062l1.065-.977a3.746 3.746 0 0 0 -3.214-1.509 4.267 4.267 0 0 0 -4.372 4.492zm8.807 0a4.289 4.289 0 0 0 4.439 4.51 4.824 4.824 0 0 0 3.449-1.273l-.745-1.047a3.646 3.646 0 0 1 -2.54 1.01 2.813 2.813 0 0 1 -2.912-2.663h6.783v-.391c0-2.628-1.6-4.634-4.173-4.634a4.313 4.313 0 0 0 -4.296 4.494zm4.3-3.178a2.537 2.537 0 0 1 2.61 2.557h-5.236a2.627 2.627 0 0 1 2.628-2.552zm-78.766 29.335h1.776v-11.844h-2.539l-3.445 8.505-3.445-8.505h-2.539v11.844h1.776v-9.411l3.835 9.411h.746l3.835-9.411zm3.835-4.3a4.289 4.289 0 0 0 4.439 4.51 4.824 4.824 0 0 0 3.445-1.278l-.746-1.048a3.646 3.646 0 0 1 -2.539 1.012 2.813 2.813 0 0 1 -2.912-2.663h6.783v-.39c0-2.628-1.6-4.634-4.173-4.634a4.313 4.313 0 0 0 -4.296 4.494zm4.3-3.178a2.537 2.537 0 0 1 2.61 2.557h-5.24a2.627 2.627 0 0 1 2.628-2.555zm5.433 6.357a4.879 4.879 0 0 0 3.569 1.332c2.255 0 3.462-1.154 3.462-2.628 0-1.971-1.776-2.379-3.267-2.717-1.065-.249-1.989-.5-1.989-1.243 0-.692.675-1.119 1.758-1.119a3.343 3.343 0 0 1 2.539 1.048l.71-1.119a4.59 4.59 0 0 0 -3.266-1.223c-2.1 0-3.267 1.172-3.267 2.539 0 1.847 1.7 2.237 3.161 2.575 1.1.249 2.077.533 2.077 1.385 0 .728-.639 1.225-1.847 1.225a4.155 4.155 0 0 1 -2.877-1.225zm14.844 1.119h1.6v-6.055a2.432 2.432 0 0 0 -2.752-2.734 4.121 4.121 0 0 0 -3.036 1.421v-4.474h-1.6v11.844h1.6v-6.126a3.064 3.064 0 0 1 2.36-1.243c1.1 0 1.829.426 1.829 1.847zm18.964 0h1.776v-11.842h-2.541l-3.445 8.505-3.445-8.505h-2.537v11.844h1.776v-9.411l3.835 9.411h.746l3.833-9.411zm9.659 0h1.6v-5.787c0-2.184-1.58-3-3.445-3a4.821 4.821 0 0 0 -3.516 1.4l.692 1.1a3.509 3.509 0 0 1 2.575-1.136c1.225 0 2.1.639 2.1 1.7v1.428a3.577 3.577 0 0 0 -2.806-1.136 2.768 2.768 0 0 0 -2.983 2.806 2.85 2.85 0 0 0 2.983 2.841 3.676 3.676 0 0 0 2.806-1.154zm0-1.882a2.717 2.717 0 0 1 -2.2.977 1.723 1.723 0 1 1 0-3.409 2.717 2.717 0 0 1 2.2.977zm9.944 1.882h1.6v-6.018a2.465 2.465 0 0 0 -2.752-2.77 4.089 4.089 0 0 0 -3.043 1.421v-1.208h-1.6v8.576h1.6v-6.125a3.064 3.064 0 0 1 2.362-1.243c1.1 0 1.829.462 1.829 1.882zm9.429 0h1.6v-5.787c0-2.184-1.58-3-3.445-3a4.821 4.821 0 0 0 -3.516 1.4l.692 1.1a3.509 3.509 0 0 1 2.575-1.136c1.225 0 2.1.639 2.1 1.7v1.428a3.577 3.577 0 0 0 -2.806-1.136 2.768 2.768 0 0 0 -2.983 2.806 2.85 2.85 0 0 0 2.983 2.841 3.676 3.676 0 0 0 2.806-1.154zm0-1.882a2.716 2.716 0 0 1 -2.2.977 1.723 1.723 0 1 1 0-3.409 2.716 2.716 0 0 1 2.2.977zm4.084 4.084a4.61 4.61 0 0 0 3.516 1.278c2.113 0 4.262-.87 4.262-3.818v-8.237h-1.6v1.243a3.5 3.5 0 0 0 -2.823-1.456c-2.22 0-3.818 1.669-3.818 4.421 0 2.806 1.6 4.439 3.818 4.439a3.615 3.615 0 0 0 2.823-1.474v1.119a2.37 2.37 0 0 1 -2.663 2.45 3.346 3.346 0 0 1 -2.752-1.136zm6.179-4.83a3.006 3.006 0 0 1 -2.379 1.278c-1.6 0-2.592-1.243-2.592-3.019 0-1.758.994-3 2.592-3a2.99 2.99 0 0 1 2.379 1.261zm3.6-1.669a4.289 4.289 0 0 0 4.439 4.51 4.824 4.824 0 0 0 3.445-1.278l-.746-1.048a3.646 3.646 0 0 1 -2.539 1.012 2.813 2.813 0 0 1 -2.912-2.663h6.783v-.391c0-2.628-1.6-4.634-4.173-4.634a4.313 4.313 0 0 0 -4.294 4.494zm4.3-3.178a2.537 2.537 0 0 1 2.61 2.557h-5.238a2.627 2.627 0 0 1 2.628-2.556zm16.6 7.475h1.6v-6.2c0-1.722-.852-2.592-2.433-2.592a3.6 3.6 0 0 0 -2.894 1.6 2.216 2.216 0 0 0 -2.326-1.6 3.712 3.712 0 0 0 -2.77 1.421v-1.204h-1.6v8.576h1.6v-6.125a2.8 2.8 0 0 1 2.1-1.243c1.083 0 1.509.657 1.509 1.651v5.718h1.6v-6.144a2.761 2.761 0 0 1 2.127-1.225c1.048 0 1.492.657 1.492 1.651zm3.6-4.3a4.289 4.289 0 0 0 4.439 4.51 4.824 4.824 0 0 0 3.445-1.278l-.746-1.048a3.646 3.646 0 0 1 -2.539 1.012 2.813 2.813 0 0 1 -2.912-2.663h6.783v-.388c0-2.628-1.6-4.634-4.173-4.634a4.313 4.313 0 0 0 -4.29 4.494zm4.3-3.178a2.537 2.537 0 0 1 2.61 2.557h-5.238a2.627 2.627 0 0 1 2.632-2.553zm11.968 7.475h1.6v-6.015a2.465 2.465 0 0 0 -2.755-2.77 4.089 4.089 0 0 0 -3.036 1.421v-1.208h-1.6v8.576h1.6v-6.125a3.064 3.064 0 0 1 2.362-1.243c1.1 0 1.829.462 1.829 1.882zm6.5.213a2.276 2.276 0 0 0 1.669-.55l-.408-1.207a1.229 1.229 0 0 1 -.87.337c-.55 0-.835-.444-.835-1.048v-4.914h1.74v-1.403h-1.74v-2.344h-1.6v2.344h-1.421v1.4h1.421v5.274a1.866 1.866 0 0 0 2.046 2.116z" fill="#35393b" transform="translate(101.033 44.076)"/><g fill="#516ba9"><path d="m11.6 29.3v12.769a.048.048 0 0 1 -.038.048l-11.509 2.109a.045.045 0 0 1 -.043-.019.052.052 0 0 1 -.01-.049l11.513-27.467a.045.045 0 0 1 .051-.027.049.049 0 0 1 .036.047z" transform="translate(52.052 16.365)"/><path d="m17.631 18.946v20.188a.048.048 0 0 0 .041.048l17.24 2.057a.045.045 0 0 0 .042-.02.052.052 0 0 0 0-.049l-17.235-41.144a.045.045 0 0 0 -.051-.026.048.048 0 0 0 -.037.046z" transform="translate(47.961 19.354)"/><path d="m30.7 52.528-19.072 6.114a.045.045 0 0 1 -.033 0l-11.524-6.114a.049.049 0 0 1 -.026-.055.046.046 0 0 1 .046-.038h30.594a.048.048 0 0 1 .038.041.05.05 0 0 1 -.023.052z" transform="translate(52.042 9.949)"/></g></g><g fill="#516ba9" transform="translate(277.649 181.285)"><path d="m-8919.939 996.146h-1v-79.946h1z" transform="translate(9180.638 -907.651)"/><path d="m-8729.636 942.589h-252.464v-51.682h1v50.682h251.466z" transform="translate(8987.819 -881.209)"/><path d="m-8723.914 942.588h-257.693v-1h256.693v-50.681h1z" transform="translate(9239.268 -881.209)"/><path d="m6.217 0 6.217 11.3h-12.434z"/><path d="m6.217 0 6.217 11.3h-12.434z" transform="translate(253.982)"/><path d="m6.217 0 6.217 11.3h-12.434z" transform="matrix(-1 0 0 -1 266.417 99.8)"/><path d="m6.217 0 6.217 11.3h-12.434z" transform="translate(508.635)"/></g><g fill="#e98d5e"><path d="m101.566.5h-5.566a.5.5 0 0 1 -.5-.5.5.5 0 0 1 .5-.5h5.566a.5.5 0 0 1 .5.5.5.5 0 0 1 -.5.5zm-11.566 0h-6a.5.5 0 0 1 -.5-.5.5.5 0 0 1 .5-.5h6a.5.5 0 0 1 .5.5.5.5 0 0 1 -.5.5zm-12 0h-6a.5.5 0 0 1 -.5-.5.5.5 0 0 1 .5-.5h6a.5.5 0 0 1 .5.5.5.5 0 0 1 -.5.5zm-12 0h-6a.5.5 0 0 1 -.5-.5.5.5 0 0 1 .5-.5h6a.5.5 0 0 1 .5.5.5.5 0 0 1 -.5.5zm-12 0h-6a.5.5 0 0 1 -.5-.5.5.5 0 0 1 .5-.5h6a.5.5 0 0 1 .5.5.5.5 0 0 1 -.5.5zm-12 0h-6a.5.5 0 0 1 -.5-.5.5.5 0 0 1 .5-.5h6a.5.5 0 0 1 .5.5.5.5 0 0 1 -.5.5zm-12 0h-6a.5.5 0 0 1 -.5-.5.5.5 0 0 1 .5-.5h6a.5.5 0 0 1 .5.5.5.5 0 0 1 -.5.5zm-12 0h-6a.5.5 0 0 1 -.5-.5.5.5 0 0 1 .5-.5h6a.5.5 0 0 1 .5.5.5.5 0 0 1 -.5.5zm-12 0h-6a.5.5 0 0 1 -.5-.5.5.5 0 0 1 .5-.5h6a.5.5 0 0 1 .5.5.5.5 0 0 1 -.5.5z" transform="translate(357.447 160.336)"/><path d="m6.217 0 6.217 11.3h-12.434z" transform="matrix(0 -1 1 0 353.222 166.554)"/><path d="m6.217 0 6.217 11.3h-12.434z" transform="matrix(0 1 -1 0 469.127 154.119)"/><path d="m101.566.5h-5.566a.5.5 0 0 1 -.5-.5.5.5 0 0 1 .5-.5h5.566a.5.5 0 0 1 .5.5.5.5 0 0 1 -.5.5zm-11.566 0h-6a.5.5 0 0 1 -.5-.5.5.5 0 0 1 .5-.5h6a.5.5 0 0 1 .5.5.5.5 0 0 1 -.5.5zm-12 0h-6a.5.5 0 0 1 -.5-.5.5.5 0 0 1 .5-.5h6a.5.5 0 0 1 .5.5.5.5 0 0 1 -.5.5zm-12 0h-6a.5.5 0 0 1 -.5-.5.5.5 0 0 1 .5-.5h6a.5.5 0 0 1 .5.5.5.5 0 0 1 -.5.5zm-12 0h-6a.5.5 0 0 1 -.5-.5.5.5 0 0 1 .5-.5h6a.5.5 0 0 1 .5.5.5.5 0 0 1 -.5.5zm-12 0h-6a.5.5 0 0 1 -.5-.5.5.5 0 0 1 .5-.5h6a.5.5 0 0 1 .5.5.5.5 0 0 1 -.5.5zm-12 0h-6a.5.5 0 0 1 -.5-.5.5.5 0 0 1 .5-.5h6a.5.5 0 0 1 .5.5.5.5 0 0 1 -.5.5zm-12 0h-6a.5.5 0 0 1 -.5-.5.5.5 0 0 1 .5-.5h6a.5.5 0 0 1 .5.5.5.5 0 0 1 -.5.5zm-12 0h-6a.5.5 0 0 1 -.5-.5.5.5 0 0 1 .5-.5h6a.5.5 0 0 1 .5.5.5.5 0 0 1 -.5.5z" transform="translate(612.183 160.336)"/><path d="m6.217 0 6.217 11.3h-12.434z" transform="matrix(0 -1 1 0 607.958 166.554)"/><path d="m6.217 0 6.217 11.3h-12.434z" transform="matrix(0 1 -1 0 723.863 154.119)"/></g></g></svg>